# xmcd CD database file
#
# Track frame offsets:
#	150
#	13413
#	29797
#	48647
#	62338
#	74724
#	92464
#	105890
#	120575
#	137865
#	149967
#
# Disc length: 2205 seconds
#
# Revision: 1
# Processed by: cddbd v1.5.2PL0 Copyright (c) Steve Scherf et al.
# Submitted via: CDex 1.79
#
DISCID=a8089b0b
DTITLE=Sonny Marshall - Sonny Marshall
DYEAR=1900
DGENRE=Country
TTITLE0=Oh No, Not You Again
TTITLE1=Pieces Of Love
TTITLE2=Marriage On The Rocks
TTITLE3=Sally In Dallas
TTITLE4=Nothin's Changed
TTITLE5=Fresno Rodeo
TTITLE6=Consider It Done
TTITLE7=Suzannah
TTITLE8=Empty Glass
TTITLE9=Two Stepping Texas Blue
TTITLE10=Lady's Man
EXTD=
EXTT0=
EXTT1=
EXTT2=
EXTT3=
EXTT4=
EXTT5=
EXTT6=
EXTT7=
EXTT8=
EXTT9=
EXTT10=
PLAYORDER=
